<svg id="Layer_2" data-name="Layer 2" xmlns="http://www.w3.org/2000/svg" viewBox="0 0 254.44 288"><defs><style>.cls-1{fill:#fff;}.cls-2{fill:#643510;}.cls-3{fill:#b21e28;}</style></defs><title>cujo_1</title><path class="cls-1" d="M204.48,158.36c-1.07,2.9-3.7,7-6.74,11.71-1.95,3-4,6.27-6,9.62-4.3,7.38-7.84,15.19-7.51,22.07l-1.55,1.19-9.08,2.28L170,201.8l-13.46,3.85-9.62-5.36-6.56,3.32-9.19-.89-11.95,6-5.85-1.1-6.83,3-4,3.44v-4l-6.3-7.63-10.51,1.35L77,201.27l-4.71-3.92c-.54-5.34-4.69-12.19-9.32-18.9-1.35-2-2.76-3.95-4.12-5.86-3.95-5.51-7.67-10.72-9-14.23a22.57,22.57,0,0,1-1.17-12.26,20.7,20.7,0,0,0,.24-5.34l2.42-2.1,5.32-4.57,9.71,2.81,9.79-10.85,10.6,1.17L96,119.55l2.32.29a4.58,4.58,0,0,0,1.69,4.94,9.34,9.34,0,0,0,5.27,1.8,17.75,17.75,0,0,1,6.1,1.65,22.44,22.44,0,0,1,2.31,1.64c3.09,2.36,9.06,5.83,13.27,5.83,4,0,7.55-3.33,10.76-5.62a22.58,22.58,0,0,1,2.71-1.77,44,44,0,0,1,5.15-1.14c2.5-.43,4.47-.78,6.42-2.38a4.57,4.57,0,0,0,1.69-2.6l4.68,2.37,8.4-.68,3.32,6.45,8.82-3.42,4.33-12,3.36-2-1.67,4.64,1.27,4.94-2.6,7.29,10.62.5,5.76,6.14,3.59,1.51,2.18.92a31.5,31.5,0,0,0,.13,5.51C206.21,148.31,206.57,152.73,204.48,158.36Z"/><path class="cls-2" d="M182.42,146.64c2.8,10-.41,21.64-9.41,33.85-1.39,1.9-2,5.39-2.7,9.07-1.31,7.24-3,16.23-11.48,19.3-8.08,2.9-15.27.93-21.62-.8-3.54-1-6.88-1.89-10-1.89s-6.48.92-10,1.89c-4,1.1-8.34,2.28-13,2.28a25.12,25.12,0,0,1-8.59-1.48c-8.54-3.07-10.17-12.06-11.49-19.3-.66-3.68-1.3-7.17-2.7-9.07-9-12.22-12.22-23.85-9.4-33.85A67.24,67.24,0,0,0,63,150.24c.71-.54,12.82-9.35,25.24-8.8,4.47.2,8.75,1.85,12.88,3.44,7.89,3,15.35,5.89,24.75.06v-2.33a5,5,0,0,1,1.1-3.1l.18-.22.18.22a4.89,4.89,0,0,1,1.1,3.1v2.33c9.41,5.82,16.88,3,24.75-.06,4.14-1.59,8.41-3.24,12.88-3.44,12.42-.55,24.52,8.27,25.24,8.8A67.52,67.52,0,0,0,182.42,146.64Z"/><path class="cls-1" d="M167.35,159.16A19.83,19.83,0,0,1,158,172.9s1.16-11.91,0-14.54c-.48-1.12-1.49-2.7-2.33-4.48-1.69,7.07-5.45,9.22-5.45,9.22s-3.35-1.17-5-7.61c-1.32,6.52-4.48,7.61-4.48,7.61s-2.4-.92-3.9-5.64c-1.68,6.37-4.9,7.47-4.9,7.47s-2.9-1.11-4.64-6.88c-1.69,5.52-4.47,6.57-4.47,6.57s-3.08-1-4.73-7.11c-1.5,4.69-3.89,5.59-3.89,5.59s-3.16-1.08-4.48-7.62c-1.62,6.45-5,7.62-5,7.62s-3.68-2.33-5.41-9.33c-.84,1.82-1.87,3.44-2.37,4.59-1.16,2.62,0,14.52,0,14.52a19.78,19.78,0,0,1-9.36-13.73,21.42,21.42,0,0,1,2.73-15,40.08,40.08,0,0,1,8.14,2.4l1.76.66.33.13a58.84,58.84,0,0,0,8.59,2.78l1.34.28a26,26,0,0,0,4.37.39c.75,0,1.5,0,2.27-.11s1.4-.18,2.11-.32a23.59,23.59,0,0,0,6.75-2.56c.38-.2.78-.43,1.17-.68.47.29.93.56,1.39.8a23.41,23.41,0,0,0,7.16,2.54,20,20,0,0,0,2.09.27c.56,0,1.12.06,1.68.06a25.34,25.34,0,0,0,5-.51c.46-.09.9-.19,1.35-.31a63.67,63.67,0,0,0,8.32-2.76l.33-.13,2-.76a36.59,36.59,0,0,1,8.09-2.24A21.44,21.44,0,0,1,167.35,159.16Z"/><path class="cls-1" d="M163.56,202.13a11.3,11.3,0,0,1-5.59,4.34,21.54,21.54,0,0,1-4.31,1.08c-.47.08-.94.13-1.41.17a30.2,30.2,0,0,1-9.33-.82l-.27-.06c-1.62-.37-3.2-.8-4.78-1.24l-1.16-.32-2-.52a35.79,35.79,0,0,0-6.05-1.08c-.5,0-1-.05-1.49-.05l-.87,0a30.91,30.91,0,0,0-6.06,1c-.65.15-1.31.33-2,.51l-1.77.48c-1.38.38-2.75.75-4.15,1.1l-1.11.25a30.82,30.82,0,0,1-8.5.8q-.71,0-1.41-.11a23.3,23.3,0,0,1-4.92-1.17,11.13,11.13,0,0,1-4.82-3.33,23.17,23.17,0,0,1-.18-8.68c1.63-9.87,8.52-13.73,8.52-13.73s-1,11.91,0,14.54c.46,1.15,1.4,2.76,2.18,4.59,1.57-7,4.93-9.34,4.93-9.34s3,1.17,4.52,7.63c1.2-6.55,4.09-7.63,4.09-7.63s2.17.92,3.53,5.62c1.5-6.08,4.32-7.12,4.32-7.12s2.46,1,4,6.36c1.53-5.33,4-6.36,4-6.36s2.82,1,4.32,7.12c1.36-4.7,3.53-5.62,3.53-5.62s2.88,1.08,4.09,7.58c1.47-6.48,4.52-7.66,4.52-7.66s3.36,2.33,4.93,9.33c.76-1.82,1.69-3.44,2.15-4.57,1.06-2.64,0-14.54,0-14.54s6.89,3.86,8.54,13.73A23.43,23.43,0,0,1,163.56,202.13Z"/><path class="cls-1" d="M183.76,205.15l-9.29,2.34.37,3.61-1.52,2,1.61,8.29-1.74-4.15-1-3.08-1.75,1.25-3.57.85,3.39-2.06,2.6-2.95-.8-4.13-2.73-2.58-13.11,3.74L146.85,203l-6,3.07-9.2-.9-12,6-5.94-1.1-6,2.58-7.54,6.62v-8.42l-4.9-5.95-9.68,1.25-9.68-2.73L70.58,199c.72,19.45,9.35,44.26,21.5,50.81,9.15,4.93,18.6,10,51.25,9.37l3.5-3-2.64-.35-2.61-3.49-2.16-2.89h0L138,247l-1.44-6.16,2.35,4.68,2,2.66,2.17,2.22,2.41,3.23,4.33.56,7.22.67c13.75-4.25,29.4-27.62,30.17-52.39ZM149,244.27a3.4,3.4,0,1,1,3.39-3.39A3.39,3.39,0,0,1,149,244.27Z"/><path class="cls-1" d="M184.15,18.47C164,6.87,139.34,1,118,2.68L114.6,8.55l-2.54,4.32,3.57,3.56,1.75,4-2.85-3.66-3.39-2.25L109,17.42l-4.25,2.9,3.55-4.54,4.14-8.41-5.31-2.89c-3.13,1-20.72,6.4-30.15,10.3-9.93,4.13-38.39,24.1-38.83,60.67a174.25,174.25,0,0,0,1.49,23c.29,2.42.6,4.78.9,7.06.2,1.58.41,3.14.6,4.65,1.83,14.62,3.87,25.7,4.71,30.05l4.77-4.11,5.47-4.72,9.52,2.76,9.31-10.3c.24-1.32.82-4.57,1.27-7.08l-3.55-4,1.07-6.44L69.55,98.5c-6.44-3-13.69-7.78-14.26-13.08a22,22,0,0,1,7.48-18.84,105.24,105.24,0,0,0-12.3,1.88c.72-.38,16.45-8.49,37.17-2.78,8.39,2.31,15.06,5.94,20,8.51,4.14,2.18,7.4,3.9,9,3.51,3-.76,4-8.44,4-8.44.55,3.06.73,9.73-3.45,10.77a4.41,4.41,0,0,1-1.07.12,8.3,8.3,0,0,1-2.52-.47c.08,3.48-.4,12.45-6.82,17.09-5.44,3.93-13.84,5.35-20.88,5.35-1,0-2,0-2.9-.08l-6.91,4.78L75.2,112l3.56,4-.11.58c-.7,3.9-1.07,6-1.28,7.11l8.66.95L95.26,117l4.38.54,9.65-10.2,8,2,10.26-8.2,6.07,4,9.46,1.33L148.82,117l10,5.06,9.32-.76,3.07,5.95L177,125l4.25-11.76,6.66-3.87,1.71-5.29,5-2.36,6.19-2.94-6.16,4.65-3,2.24-.58,1.86-3.63,10.15,1.27,4.94-1.76,4.93,8.36.4,6.09,6.48,2.84,1.2,4.84,2c.85-5.23,3.74-23.17,5.43-38.29a163.32,163.32,0,0,0,1.26-17.52c-.07-7.81-2.21-21.53-8-34.44S193,23.57,184.15,18.47Z"/><circle class="cls-3" cx="110.51" cy="224.54" r="3.79"/><path class="cls-2" d="M110.51,221.14a3.4,3.4,0,1,1-3.4,3.4,3.4,3.4,0,0,1,3.4-3.4m0-.78a4.17,4.17,0,1,0,4.17,4.17,4.18,4.18,0,0,0-4.17-4.17Z"/><circle class="cls-3" cx="128.89" cy="44.77" r="3.79"/><path class="cls-2" d="M128.89,41.37a3.4,3.4,0,1,1-3.4,3.4,3.4,3.4,0,0,1,3.4-3.4m0-.78a4.17,4.17,0,1,0,4.17,4.17,4.18,4.18,0,0,0-4.17-4.17Z"/><circle class="cls-3" cx="155.01" cy="37.97" r="3.79"/><path class="cls-2" d="M155,34.57a3.4,3.4,0,1,1-3.4,3.4,3.4,3.4,0,0,1,3.4-3.4m0-.78A4.17,4.17,0,1,0,159.19,38,4.18,4.18,0,0,0,155,33.8Z"/><circle class="cls-3" cx="177.23" cy="31.17" r="3.79"/><path class="cls-2" d="M177.23,27.78a3.4,3.4,0,1,1-3.4,3.4,3.4,3.4,0,0,1,3.4-3.4m0-.78a4.17,4.17,0,1,0,4.17,4.17A4.18,4.18,0,0,0,177.23,27Z"/><circle class="cls-3" cx="102.78" cy="37.97" r="3.79"/><path class="cls-2" d="M102.78,34.57a3.4,3.4,0,1,1-3.4,3.4,3.4,3.4,0,0,1,3.4-3.4m0-.78A4.17,4.17,0,1,0,107,38a4.18,4.18,0,0,0-4.17-4.17Z"/><circle class="cls-3" cx="80.56" cy="31.17" r="3.79"/><path class="cls-2" d="M80.56,27.78a3.4,3.4,0,1,1-3.4,3.4,3.4,3.4,0,0,1,3.4-3.4m0-.78a4.17,4.17,0,1,0,4.17,4.17A4.18,4.18,0,0,0,80.56,27Z"/><circle class="cls-3" cx="110.51" cy="240.87" r="3.79"/><path class="cls-2" d="M110.51,237.47a3.4,3.4,0,1,1-3.4,3.4,3.4,3.4,0,0,1,3.4-3.4m0-.78a4.17,4.17,0,1,0,4.17,4.17,4.18,4.18,0,0,0-4.17-4.17Z"/><circle class="cls-3" cx="148.98" cy="240.87" r="3.79"/><path class="cls-2" d="M149,237.47a3.4,3.4,0,1,1-3.4,3.4,3.4,3.4,0,0,1,3.4-3.4m0-.78a4.17,4.17,0,1,0,4.17,4.17A4.18,4.18,0,0,0,149,236.7Z"/><circle class="cls-3" cx="148.98" cy="224.54" r="3.79"/><path class="cls-2" d="M149,221.14a3.4,3.4,0,1,1-3.4,3.4,3.4,3.4,0,0,1,3.4-3.4m0-.78a4.17,4.17,0,1,0,4.17,4.17,4.18,4.18,0,0,0-4.17-4.17Z"/><path class="cls-2" d="M169.53,65.68c-8.4,2.31-15.06,5.94-20,8.51-4.14,2.18-7.4,3.9-9,3.51-3-.76-4-8.44-4-8.44C136,72.32,135.83,79,140,80a4.41,4.41,0,0,0,1.07.12,8.3,8.3,0,0,0,2.52-.47c-.08,3.48.4,12.45,6.82,17.09,5.44,3.93,13.84,5.35,20.88,5.35a40.72,40.72,0,0,0,8.42-.79c5.77-1.25,21.33-8.06,22.16-15.91a22,22,0,0,0-7.48-18.84,102.7,102.7,0,0,1,12.33,1.89S190.74,59.83,169.53,65.68Zm30,19.49C198.89,90.82,186,97.51,179.2,99c-7,1.52-20.35.91-27.38-4.16-6.32-4.58-5.88-14.73-5.79-16.15,1.37-.64,2.9-1.45,4.65-2.36A99.31,99.31,0,0,1,170.18,68c6.31-1.81,13.55-2.06,19.91-1.73C196.77,70.71,200.27,77.74,199.49,85.16Z"/><path class="cls-3" d="M199.49,85.16C198.89,90.82,186,97.51,179.2,99c-7,1.52-20.35.91-27.38-4.16-6.32-4.58-5.88-14.73-5.79-16.15,1.37-.64,2.9-1.45,4.65-2.36A99.31,99.31,0,0,1,170.18,68c6.31-1.81,13.55-2.06,19.91-1.73C196.77,70.71,200.27,77.74,199.49,85.16Z"/><path class="cls-2" d="M146.26,68s3.92-10.91,24.65-15.22c19.83-4.12,30.87,3.61,30.87,3.61C174.39,44.69,146.54,67.73,146.26,68Z"/><path class="cls-3" d="M57.68,85.16c.43,4.09,7.31,8.73,13.64,11.53.56,2.3,4.06,7.68,4.06,7.68s5.54-3.11,6.9-4.78c7.27.56,17.3-.6,23.06-4.76,6.32-4.58,5.88-14.73,5.79-16.15-1.37-.64-2.9-1.45-4.65-2.36A99.31,99.31,0,0,0,87,68c-6.31-1.81-13.55-2.06-19.91-1.73C60.4,70.71,56.9,77.74,57.68,85.16Z"/><path class="cls-2" d="M110.91,68S107,57.05,86.26,52.74c-19.83-4.12-30.87,3.61-30.87,3.61C82.78,44.69,110.63,67.73,110.91,68Z"/><path class="cls-2" d="M128.64,80.23h0A1.1,1.1,0,0,1,127.55,79l.33-4a1.1,1.1,0,0,0,0-.18l-.33-4a1.1,1.1,0,0,1,1.09-1.19h0a1.1,1.1,0,0,1,1.09,1.2l-.37,3.94a1.1,1.1,0,0,0,0,.21l.37,3.94A1.1,1.1,0,0,1,128.64,80.23Z"/><path class="cls-2" d="M252.65,174.37s1.35,0,1.35-1.06-5.55-8.54-6.29-9-.46-3.9-.46-3.9.16,1.06,1.65,0-.45-3.74-2.25-5.4a23.91,23.91,0,0,1-3.6-4.79s1.2-.75,1.06-1.65-5.86-7.05-6.9-7.95-1.8-4.64-1.8-5.4,4.94-.75,4.94-1.69-4.79-6.1-4.19-6.1,2.86-.6,3-1.77-2.84-4.82-4-5.86,0-.9,0-2S232,114,232,114a1.66,1.66,0,0,0,1.5-1.69c0-1.55-1.8-2.8-3-3.25s.27-1.2-.47-2.25,1.34-1.8,0-2.7-1.2,0-1.66,0-.74-1-1-1.94-4.68-2.84-6.17-4.34,0-2.55-1.06-3.89a5.81,5.81,0,0,0-2.45-1.62c.36-4,.55-7.61.53-10.38-.07-8.05-2.27-22.15-8.19-35.41s-15.21-24.64-24.64-30.08C164.61,4.45,139.12-1.56,117.19.35l-.61,0L113.7,5.32l-6.32-3.43-.47.14c-.19.06-20.41,6.21-30.83,10.54s-39.86,25-40.32,62.85a157.68,157.68,0,0,0,.79,16.91,5.63,5.63,0,0,0-2.29,1.55c-1,1.34.44,2.39-1,3.88s-5.8,3.46-6.09,4.35-.61,2-1.06,2-.3-.9-1.65,0,.75,1.64,0,2.7.73,1.8-.46,2.26-3,1.7-3,3.25a1.67,1.67,0,0,0,1.5,1.69s-3.14,2.73-3.14,3.84,1.2,1,0,2-4.19,4.7-4.05,5.86,2.4,1.78,3,1.78-4.19,5.16-4.19,6.1,4.94.93,4.94,1.69-.75,4.5-1.8,5.4-6.73,7-6.88,8,1,1.64,1,1.64a24.09,24.09,0,0,1-3.6,4.8C6,156.68,4,159.39,5.54,160.44s1.65,0,1.65,0,.3,3.44-.44,3.89-6.31,7.95-6.31,9,1.35,1.06,1.35,1.06-2.84,6.28-1.35,6.89,1.51,0,1.51,0,.44,8.85.15,9.59-1.8,4.65-.9,5.71a2.1,2.1,0,0,0,1.8.89s1.44,3.6,2.79,4.64.9,6.76,2.86,6.76c1.79,0,1.17-1,1.06-1.18.57.48,9.58,8.09,14.66,8.82,5.26.75,4.95-.75,5.1,0s4,2.4,6.29,2.25a7,7,0,0,0,4.05-2.1s5.54,2.24,6,1.5a2.29,2.29,0,0,0,0-1.79s1.49-.15,1.94-.75c0,0,3.12,2.14,5.72.67s2.17-3.57,1.95-3.95a2.65,2.65,0,0,0,.17-4.44c4.05.32,4.65-1.13,4.63-1.85s-.78-1.83-.48-2.58c.46,1.43.79,2.89,1.61,2.32s1.25-2.52.19-7.08c1.76-2.73,2.3-10.58,2.45-14.38a45.25,45.25,0,0,1,5.35,10.6l-1.21-1v2.56C68.14,222.3,79.93,246,91,252c10.45,5.65,23.32,9.71,46.54,9.71,2,0,4.12,0,6.31-.07h.43l5.84-4.95,7.22.68.22-.06c18.34-5.41,32.34-35.21,32.14-57.23l0-2.39-3,2.28c.21-4,1.69-8.28,3.77-12.64.21,3.25.79,8.86,2.42,11.39-1,4.57-.64,6.52.19,7.08s1.17-.89,1.61-2.32c.3.75-.42,1.72-.47,2.58s.57,2.17,4.63,1.85a2.64,2.64,0,0,0,.17,4.44c-.23.37-.65,2.47,1.94,3.95s5.72-.68,5.72-.68c.46.61,2,.76,2,.76a2.21,2.21,0,0,0,0,1.79c.44.75,6-1.5,6-1.5a7,7,0,0,0,4,2.1c2.25.16,6.15-1.5,6.3-2.24s-.15.74,5.1,0c5.09-.74,14.1-8.35,14.66-8.83-.09.16-.71,1.18,1.08,1.18s1.5-5.7,2.84-6.74.9-3.6.9-3.6a2.12,2.12,0,0,0,1.79-.9c.9-1.06-.6-5-.89-5.69s2.14-10.65,2.14-10.65,0,.6,1.49,0S252.65,174.37,252.65,174.37ZM187.22,202.5c-.77,24.78-16.42,48.15-30.17,52.39l-7.22-.67-4.33-.57-2.42-3.22-2.17-2.22-2-2.66-2.35-4.68L138,247l1.44,2.47v0l2.16,2.89,2.61,3.49,2.64.35-3.5,3c-29.11.69-42.1-4.43-51.25-9.37C79.93,243.31,71.3,218.5,70.58,199l5.27,4.39,9.68,2.73,9.68-1.24,4.91,5.95v8.41l7.54-6.62,6-2.58,5.94,1.1,12-6,9.2.9,6-3.07,9.37,5.23,13.11-3.74,2.73,2.58.8,4.12-2.6,3-3.39,2.07,3.57-.85,1.76-1.25,1,3.08,1.74,4.15-1.61-8.28,1.52-2-.37-3.61,9.3-2.34Zm17.26-44.14c-1.07,2.9-3.7,7-6.74,11.71-1.95,3-4,6.27-6,9.62-4.3,7.38-7.84,15.19-7.51,22.07l-1.55,1.19-9.08,2.28L170,201.8l-13.46,3.85-9.62-5.36-6.56,3.32-9.19-.89-11.95,6-5.85-1.1-6.83,3-4,3.44v-4l-6.3-7.63-10.51,1.35L77,201.27l-4.71-3.92c-.54-5.34-4.69-12.19-9.32-18.9-1.35-2-2.76-3.95-4.12-5.86-3.95-5.51-7.67-10.72-9-14.23a22.57,22.57,0,0,1-1.17-12.26,20.7,20.7,0,0,0,.24-5.34l2.42-2.1,5.32-4.57,9.71,2.81,9.79-10.85,10.6,1.17L96,119.55l2.32.29a4.58,4.58,0,0,0,1.69,4.94,9.34,9.34,0,0,0,5.27,1.8,17.75,17.75,0,0,1,6.1,1.65,22.44,22.44,0,0,1,2.31,1.64c3.09,2.36,9.06,5.83,13.27,5.83,4,0,7.55-3.33,10.76-5.62a22.58,22.58,0,0,1,2.71-1.77,44,44,0,0,1,5.15-1.14c2.5-.43,4.47-.78,6.42-2.38a4.57,4.57,0,0,0,1.69-2.6l4.68,2.37,8.4-.68,3.32,6.45,8.82-3.42,4.33-12,3.36-2-1.67,4.64,1.27,4.94-2.6,7.29,10.62.5,5.76,6.14,3.59,1.51,2.18.92a31.5,31.5,0,0,0,.13,5.51C206.21,148.31,206.57,152.73,204.48,158.36Zm10-59c-1.69,15.12-4.58,33.06-5.43,38.29l-4.85-2-2.84-1.2L195.31,128l-8.36-.4,1.76-4.93-1.27-4.94,3.63-10.14.57-1.86,3-2.24,6.17-4.65-6.19,2.94-5,2.36-1.72,5.29-6.66,3.88L177,125l-5.79,2.24-3.07-5.95-9.32.76-10-5.06-5.69-10.52-9.46-1.33-6.07-4L117.82,109l-.48.38-.53-.13-7.52-1.9-9.65,10.21-4.38-.54L86,124.73l-8.66-.95c.22-1.12.58-3.22,1.28-7.11l.11-.57-3.56-4,.86-5.23L83,102c.93.06,1.9.09,2.9.09,7,0,15.44-1.41,20.88-5.34,6.42-4.64,6.9-13.62,6.82-17.09a8.44,8.44,0,0,0,2.52.47,4.4,4.4,0,0,0,1.07-.12c4.19-1,4-7.7,3.45-10.76,0,0-1,7.68-4,8.44-1.58.38-4.85-1.34-9-3.52-4.89-2.58-11.56-6.2-20-8.51C66.92,60,51.19,68.08,50.47,68.46a106.14,106.14,0,0,1,12.3-1.88,22,22,0,0,0-7.49,18.84c.57,5.3,7.82,10.12,14.26,13.08l4.16,7.84-1.07,6.44,3.55,4c-.45,2.5-1,5.76-1.27,7.08l-9.3,10.3-9.52-2.76-5.47,4.72-4.78,4.12c-.84-4.36-2.87-15.43-4.71-30.06-.19-1.51-.39-3.07-.6-4.65-.3-2.28-.61-4.64-.9-7.06a175,175,0,0,1-1.48-23.05C38.6,38.89,67.06,18.91,77,14.79c9.43-3.9,27-9.34,30.15-10.31l5.31,2.89-4.14,8.41-3.55,4.54,4.25-2.9,2.14-2.93,3.39,2.26,2.85,3.66-1.75-4-3.57-3.56,2.54-4.32L118,2.69C139.34,1,164,6.87,184.16,18.47c8.87,5.1,17.93,16.21,23.63,29s7.91,26.63,8,34.45A161.11,161.11,0,0,1,214.52,99.41ZM71.33,96.7C65,93.89,58.11,89.26,57.68,85.16c-.78-7.43,2.72-14.45,9.4-18.9,6.35-.33,13.6-.09,19.91,1.72a99.5,99.5,0,0,1,19.5,8.33c1.75.91,3.29,1.72,4.65,2.36.08,1.43.53,11.57-5.79,16.15-5.77,4.16-15.8,5.31-23.06,4.76l-6.91,4.78Z"/><path class="cls-1" d="M138.06,117.63c2.06-.76-2.59-9.33-3.77-8.78S133.76,119.21,138.06,117.63Z"/><path class="cls-1" d="M118.16,111.84c-.19,2.94-1.44,6.82-4.27,5.79-1.26-.46,0-3.83,1.4-6.26l2.63.66Z"/><path class="cls-3" d="M140.35,203.61a9.6,9.6,0,0,1-.84,2.33s0,.06-.05.09c-.31.69-.71,1.48-1.17,2.32-1.24,2.29-2.9,5-4.52,7.57-2.05,3.23-3.55,11.31-3.26,18.85.16,3.82,1.65,8.94,1.93,11.62s-.37,5.84-5,5.85c-3.67,0-5.62-3.81-5.62-6.69,0-3.18,3.9-7.25,3-12.1-.23-1.28-1.47-7.3-1.47-8.92s-2.59-5.69-4.22-6.82-4.7,0-7,.49-5.84-.17-7.3.64-4.39,4.87-3.9,7.31.5,9.26.5,11.32-1.79,5.4-2,9.06c-.13,3.11,2.21,5.58,3.36,8.05a6.2,6.2,0,0,1,.48,1.27,4.16,4.16,0,0,1,.09,1.45c-.23,2.52-2.34,5.3-2.47,9.1-.16,4.54,7,21.59-2.76,21.59s-2.28-18.17-1.62-20.61c.45-1.7-1.6-8.09-3.44-14.28-.33-1.08-.64-2.14-.95-3.18-.43-1.53-.82-3-1.13-4.29-1.69-7.31.31-13,1-14.13s-.16-6.66-.16-8.12,1.62-7.15.82-10.06C92,210.95,89.08,209.07,87,206a13,13,0,0,1-1.27-2.27l2.83-.36,3-.4,4.68-.6,1.1,1.33,3.14,3.81a8.45,8.45,0,0,0,.85.13c.47,0,.95.09,1.41.11a30.93,30.93,0,0,0,8.5-.8l1.1-.26c1.41-.35,2.78-.71,4.15-1.09l1.78-.5c.67-.18,1.34-.34,2-.5a29.86,29.86,0,0,1,6.06-1l.87,0c.5,0,1,0,1.49,0l.47,0,.18-.08,1.85-.92Z"/></svg>