<svg id="Layer_2" data-name="Layer 2" xmlns="http://www.w3.org/2000/svg" viewBox="0 0 288 288"><defs><style>.cls-1{fill:#fff;}.cls-2{fill:#643510;}.cls-3{fill:#b21e28;}</style></defs><title>cujo-sq-white</title><rect class="cls-1" width="288" height="288"/><path class="cls-1" d="M216.43,157.47c-1,2.72-3.47,6.54-6.32,11-1.83,2.83-3.79,5.88-5.61,9-4,6.92-7.35,14.24-7,20.69L196,199.26l-8.51,2.13-3.4-3.2-12.62,3.61-9-5-6.15,3.11-8.61-.84-11.2,5.6-5.48-1-6.41,2.77-3.76,3.23v-3.74l-5.91-7.16L105.09,200l-8.17-2.3L92.5,194c-.5-5-4.4-11.43-8.74-17.72-1.27-1.86-2.58-3.7-3.87-5.49-3.7-5.17-7.19-10-8.41-13.34A21.16,21.16,0,0,1,70.38,146a19.41,19.41,0,0,0,.23-5l2.27-2,5-4.29,9.1,2.64,9.18-10.17,9.94,1.09,8.64-7.19,2.18.27a4.3,4.3,0,0,0,1.59,4.63,8.76,8.76,0,0,0,4.94,1.69,16.64,16.64,0,0,1,5.72,1.54,21,21,0,0,1,2.17,1.54c2.9,2.21,8.5,5.46,12.44,5.46,3.72,0,7.08-3.12,10.08-5.27a21.17,21.17,0,0,1,2.54-1.66,41.24,41.24,0,0,1,4.83-1.07c2.34-.4,4.19-.73,6-2.23a4.28,4.28,0,0,0,1.58-2.44l4.39,2.22,7.87-.64,3.12,6,8.27-3.2,4.06-11.23,3.15-1.83-1.57,4.35,1.19,4.63-2.44,6.83,10,.47,5.4,5.76,3.36,1.41,2,.86a29.53,29.53,0,0,0,.12,5.17C218.05,148,218.39,152.19,216.43,157.47Z"/><path class="cls-2" d="M195.75,146.48c2.63,9.38-.38,20.29-8.83,31.73-1.3,1.78-1.9,5.05-2.53,8.5-1.23,6.78-2.77,15.22-10.76,18.09-7.57,2.72-14.32.87-20.27-.75a37.11,37.11,0,0,0-9.4-1.77,36.93,36.93,0,0,0-9.39,1.77,45.85,45.85,0,0,1-12.22,2.14,23.55,23.55,0,0,1-8-1.39c-8-2.88-9.53-11.31-10.77-18.09-.62-3.45-1.22-6.72-2.53-8.5-8.43-11.45-11.45-22.36-8.81-31.73a63,63,0,0,0-8.36,3.37c.67-.5,12-8.77,23.66-8.25,4.19.19,8.21,1.73,12.07,3.22,7.39,2.84,14.39,5.52,23.21.06v-2.19a4.65,4.65,0,0,1,1-2.9l.17-.2.17.2a4.58,4.58,0,0,1,1,2.9v2.19c8.83,5.46,15.83,2.78,23.21-.06,3.88-1.49,7.88-3,12.07-3.22,11.64-.51,23,7.75,23.66,8.25A63.3,63.3,0,0,0,195.75,146.48Z"/><path class="cls-1" d="M181.62,158.21a18.59,18.59,0,0,1-8.78,12.89s1.09-11.17,0-13.63c-.45-1.05-1.4-2.53-2.19-4.2-1.59,6.63-5.11,8.65-5.11,8.65s-3.14-1.1-4.66-7.13c-1.24,6.12-4.2,7.13-4.2,7.13s-2.25-.86-3.65-5.29c-1.58,6-4.6,7-4.6,7s-2.72-1-4.35-6.45c-1.59,5.17-4.19,6.16-4.19,6.16s-2.89-1-4.43-6.66c-1.41,4.4-3.64,5.24-3.64,5.24s-3-1-4.2-7.14c-1.52,6-4.66,7.14-4.66,7.14s-3.45-2.19-5.08-8.74c-.79,1.71-1.76,3.22-2.22,4.3-1.09,2.46,0,13.62,0,13.62a18.55,18.55,0,0,1-8.78-12.88,20.08,20.08,0,0,1,2.56-14,37.58,37.58,0,0,1,7.63,2.25l1.65.62.31.12a55.16,55.16,0,0,0,8,2.6l1.25.26a24.42,24.42,0,0,0,4.1.37c.7,0,1.41,0,2.13-.11s1.31-.17,2-.3a22.12,22.12,0,0,0,6.33-2.4c.36-.19.73-.41,1.1-.63.44.27.87.53,1.3.75A22,22,0,0,0,152,150.1a18.72,18.72,0,0,0,2,.25c.53,0,1.05.06,1.58.06a23.76,23.76,0,0,0,4.65-.48c.43-.08.85-.18,1.27-.29a59.69,59.69,0,0,0,7.8-2.59l.31-.12,1.89-.72a34.31,34.31,0,0,1,7.58-2.1A20.1,20.1,0,0,1,181.62,158.21Z"/><path class="cls-1" d="M178.07,198.49a10.59,10.59,0,0,1-5.24,4.07,20.2,20.2,0,0,1-4,1c-.44.07-.88.12-1.33.16a28.31,28.31,0,0,1-8.74-.76l-.25-.06c-1.52-.35-3-.75-4.48-1.16l-1.09-.3L151,201a33.56,33.56,0,0,0-5.67-1c-.47,0-.93,0-1.4,0l-.81,0a29,29,0,0,0-5.69.9c-.61.14-1.23.31-1.86.48l-1.66.45c-1.29.36-2.58.7-3.89,1l-1,.24a28.89,28.89,0,0,1-8,.75q-.66,0-1.33-.11a21.84,21.84,0,0,1-4.61-1.1,10.43,10.43,0,0,1-4.51-3.12,21.72,21.72,0,0,1-.17-8.13c1.53-9.26,8-12.88,8-12.88s-1,11.17,0,13.63c.43,1.07,1.31,2.59,2,4.3,1.47-6.56,4.62-8.75,4.62-8.75s2.85,1.1,4.24,7.15c1.12-6.14,3.83-7.15,3.83-7.15s2,.86,3.31,5.27c1.41-5.7,4-6.68,4-6.68s2.31,1,3.75,6c1.43-5,3.74-6,3.74-6s2.64,1,4,6.68c1.28-4.41,3.31-5.27,3.31-5.27s2.7,1,3.83,7.11c1.37-6.08,4.24-7.18,4.24-7.18s3.15,2.19,4.62,8.74c.72-1.71,1.59-3.22,2-4.29,1-2.47,0-13.63,0-13.63s6.46,3.62,8,12.88A22,22,0,0,1,178.07,198.49Z"/><path class="cls-1" d="M197,201.33l-8.71,2.19.35,3.38-1.43,1.83,1.51,7.77-1.63-3.89-.92-2.89-1.64,1.17-3.35.8,3.18-1.93L186.8,207l-.75-3.87-2.56-2.42-12.29,3.51-8.79-4.9-5.65,2.88-8.62-.84L136.84,207l-5.56-1-5.61,2.42-7.07,6.21v-7.89l-4.6-5.58-9.07,1.17-9.07-2.56-4.95-4.11c.67,18.23,8.77,41.5,20.16,47.63,8.58,4.62,17.44,9.4,48,8.78l3.28-2.79-2.47-.33-2.45-3.27-2-2.71h0l-1.35-2.32-1.35-5.78,2.2,4.38,1.9,2.5,2,2.08,2.26,3,4.06.53L172,248c12.89-4,27.57-25.89,28.29-49.12ZM164.4,238a3.19,3.19,0,1,1,3.18-3.18A3.18,3.18,0,0,1,164.4,238Z"/><path class="cls-1" d="M197.38,26.31c-18.89-10.87-42-16.38-62-14.79l-3.2,5.5-2.38,4,3.35,3.34,1.64,3.73L132.1,24.7l-3.18-2.11-2,2.74-4,2.72,3.33-4.26,3.88-7.88-5-2.71c-2.93.9-19.43,6-28.26,9.66-9.31,3.87-36,22.6-36.4,56.87a163.36,163.36,0,0,0,1.39,21.61c.27,2.27.56,4.49.84,6.62.19,1.48.38,2.95.56,4.36C65,126,66.93,136.42,67.72,140.5l4.47-3.86,5.13-4.43,8.93,2.59L95,125.14c.22-1.24.76-4.28,1.19-6.63l-3.33-3.78,1-6-3.9-7.35c-6-2.78-12.84-7.3-13.37-12.27a20.57,20.57,0,0,1,7-17.66A98.66,98.66,0,0,0,72,73.18c.67-.36,15.42-8,34.85-2.61a90.2,90.2,0,0,1,18.71,8c3.88,2,6.94,3.65,8.42,3.29,2.82-.71,3.78-7.91,3.78-7.91.52,2.87.69,9.12-3.24,10.1a4.14,4.14,0,0,1-1,.11,7.78,7.78,0,0,1-2.36-.44c.08,3.26-.37,11.67-6.4,16-5.1,3.69-13,5-19.57,5-.93,0-1.84,0-2.72-.08L96,109.14l-.81,4.9,3.34,3.79-.1.54c-.65,3.65-1,5.62-1.2,6.67l8.12.89,8.66-7.19,4.1.51,9-9.57,7.54,1.9,9.62-7.69,5.69,3.73,8.87,1.25,5.33,9.86,9.41,4.74,8.74-.71,2.88,5.58,5.43-2.1,4-11,6.24-3.63,1.61-5,4.65-2.21,5.8-2.75L207.2,106l-2.8,2.1-.54,1.74-3.41,9.51,1.19,4.63L200,128.62l7.84.37,5.71,6.07,2.66,1.12,4.54,1.91c.8-4.9,3.51-21.72,5.09-35.9A153.11,153.11,0,0,0,227,85.77a87.88,87.88,0,0,0-7.49-32.29C214.18,41.51,205.7,31.1,197.38,26.31Z"/><circle class="cls-3" cx="128.33" cy="219.5" r="3.55"/><path class="cls-2" d="M128.33,216.32a3.19,3.19,0,1,1-3.19,3.19,3.19,3.19,0,0,1,3.19-3.19m0-.73a3.91,3.91,0,1,0,3.91,3.91,3.92,3.92,0,0,0-3.91-3.91Z"/><circle class="cls-3" cx="145.57" cy="50.97" r="3.55"/><path class="cls-2" d="M145.57,47.78A3.19,3.19,0,1,1,142.39,51a3.19,3.19,0,0,1,3.19-3.19m0-.73A3.91,3.91,0,1,0,149.48,51a3.92,3.92,0,0,0-3.91-3.91Z"/><circle class="cls-3" cx="170.06" cy="44.6" r="3.55"/><path class="cls-2" d="M170.06,41.41a3.19,3.19,0,1,1-3.19,3.19,3.19,3.19,0,0,1,3.19-3.19m0-.73A3.91,3.91,0,1,0,174,44.6a3.92,3.92,0,0,0-3.91-3.91Z"/><circle class="cls-3" cx="190.89" cy="38.23" r="3.55"/><path class="cls-2" d="M190.89,35a3.19,3.19,0,1,1-3.19,3.19A3.19,3.19,0,0,1,190.89,35m0-.73a3.91,3.91,0,1,0,3.91,3.91,3.92,3.92,0,0,0-3.91-3.91Z"/><circle class="cls-3" cx="121.08" cy="44.6" r="3.55"/><path class="cls-2" d="M121.08,41.41a3.19,3.19,0,1,1-3.19,3.19,3.19,3.19,0,0,1,3.19-3.19m0-.73A3.91,3.91,0,1,0,125,44.6a3.92,3.92,0,0,0-3.91-3.91Z"/><circle class="cls-3" cx="100.25" cy="38.23" r="3.55"/><path class="cls-2" d="M100.25,35a3.19,3.19,0,1,1-3.19,3.19A3.19,3.19,0,0,1,100.25,35m0-.73a3.91,3.91,0,1,0,3.91,3.91,3.92,3.92,0,0,0-3.91-3.91Z"/><circle class="cls-3" cx="128.33" cy="234.82" r="3.55"/><path class="cls-2" d="M128.33,231.63a3.19,3.19,0,1,1-3.19,3.19,3.19,3.19,0,0,1,3.19-3.19m0-.73a3.91,3.91,0,1,0,3.91,3.91,3.92,3.92,0,0,0-3.91-3.91Z"/><circle class="cls-3" cx="164.4" cy="234.82" r="3.55"/><path class="cls-2" d="M164.4,231.63a3.19,3.19,0,1,1-3.19,3.19,3.19,3.19,0,0,1,3.19-3.19m0-.73a3.91,3.91,0,1,0,3.91,3.91,3.92,3.92,0,0,0-3.91-3.91Z"/><circle class="cls-3" cx="164.4" cy="219.5" r="3.55"/><path class="cls-2" d="M164.4,216.32a3.19,3.19,0,1,1-3.19,3.19,3.19,3.19,0,0,1,3.19-3.19m0-.73a3.91,3.91,0,1,0,3.91,3.91,3.92,3.92,0,0,0-3.91-3.91Z"/><path class="cls-2" d="M183.66,70.57a90.07,90.07,0,0,0-18.71,8c-3.88,2-6.94,3.65-8.42,3.29-2.82-.71-3.77-7.92-3.77-7.92-.52,2.87-.69,9.12,3.23,10.1a4.14,4.14,0,0,0,1,.11,7.78,7.78,0,0,0,2.36-.44c-.08,3.26.37,11.67,6.4,16,5.1,3.69,13,5,19.57,5a38.17,38.17,0,0,0,7.89-.74c5.41-1.17,20-7.55,20.78-14.92a20.58,20.58,0,0,0-7-17.66,96.28,96.28,0,0,1,11.56,1.78S203.55,65.09,183.66,70.57Zm28.09,18.27c-.56,5.31-12.67,11.58-19,13-6.53,1.43-19.08.85-25.67-3.9-5.92-4.29-5.51-13.81-5.43-15.14,1.28-.6,2.72-1.36,4.36-2.21a93.1,93.1,0,0,1,18.28-7.8c5.91-1.7,12.7-1.93,18.66-1.62C209.2,75.29,212.49,81.88,211.76,88.84Z"/><path class="cls-3" d="M211.76,88.84c-.56,5.31-12.67,11.58-19,13-6.53,1.43-19.08.85-25.67-3.9-5.92-4.29-5.51-13.81-5.43-15.14,1.28-.6,2.72-1.36,4.36-2.21a93.1,93.1,0,0,1,18.28-7.8c5.91-1.7,12.7-1.93,18.66-1.62C209.2,75.29,212.49,81.88,211.76,88.84Z"/><path class="cls-2" d="M161.85,72.71S165.52,62.49,185,58.44c18.59-3.86,28.94,3.39,28.94,3.39C188.22,50.89,162.11,72.49,161.85,72.71Z"/><path class="cls-3" d="M78.81,88.84c.41,3.84,6.85,8.18,12.79,10.81.52,2.16,3.8,7.2,3.8,7.2s5.19-2.92,6.47-4.48c6.81.52,16.22-.57,21.62-4.47,5.92-4.29,5.51-13.81,5.43-15.14-1.28-.6-2.72-1.36-4.36-2.21a93.1,93.1,0,0,0-18.28-7.8c-5.91-1.7-12.7-1.93-18.66-1.62C81.36,75.29,78.07,81.88,78.81,88.84Z"/><path class="cls-2" d="M128.71,72.71S125,62.49,105.6,58.44C87,54.58,76.66,61.83,76.66,61.83,102.34,50.89,128.45,72.49,128.71,72.71Z"/><path class="cls-2" d="M145.33,84.22h0a1,1,0,0,1-1-1.11l.31-3.72a1,1,0,0,0,0-.17l-.31-3.72a1,1,0,0,1,1-1.11h0a1,1,0,0,1,1,1.13L146,79.2a1,1,0,0,0,0,.19l.35,3.7A1,1,0,0,1,145.33,84.22Z"/><path class="cls-2" d="M261.59,172.47s1.27,0,1.27-1-5.2-8-5.9-8.43-.43-3.66-.43-3.66.15,1,1.55,0-.42-3.51-2.11-5.06a22.41,22.41,0,0,1-3.37-4.49s1.12-.7,1-1.54-5.49-6.61-6.47-7.45-1.69-4.35-1.69-5.06,4.63-.7,4.63-1.59-4.49-5.72-3.93-5.72,2.68-.56,2.81-1.66-2.67-4.52-3.79-5.5,0-.84,0-1.89-3-3.6-3-3.6a1.56,1.56,0,0,0,1.41-1.59c0-1.45-1.69-2.63-2.79-3s.25-1.12-.44-2.11,1.25-1.69,0-2.53-1.13,0-1.56,0-.69-1-1-1.82-4.38-2.66-5.79-4.07,0-2.39-1-3.65a5.45,5.45,0,0,0-2.29-1.52c.33-3.78.52-7.14.5-9.74-.07-7.55-2.13-20.77-7.67-33.2s-14.26-23.1-23.1-28.2c-19.45-11.19-43.34-16.83-63.9-15l-.57,0L131.33,14l-5.93-3.21-.44.13c-.18.06-19.14,5.83-28.91,9.88S58.68,44.22,58.25,79.71A147.82,147.82,0,0,0,59,95.56,5.28,5.28,0,0,0,56.85,97c-1,1.26.42,2.24-1,3.64s-5.44,3.25-5.71,4.08-.57,1.83-1,1.83-.28-.84-1.55,0,.71,1.54,0,2.53.68,1.69-.43,2.12-2.8,1.59-2.8,3a1.56,1.56,0,0,0,1.41,1.59s-2.94,2.56-2.94,3.6,1.12.9,0,1.89-3.93,4.41-3.8,5.5,2.25,1.67,2.81,1.67-3.93,4.84-3.93,5.72,4.63.87,4.63,1.58-.7,4.22-1.69,5.06-6.31,6.6-6.45,7.46,1,1.54,1,1.54a22.59,22.59,0,0,1-3.37,4.5c-1.68,1.54-3.52,4.08-2.1,5.06s1.54,0,1.54,0,.28,3.23-.41,3.65-5.91,7.45-5.91,8.43,1.27,1,1.27,1-2.67,5.89-1.27,6.46,1.41,0,1.41,0,.42,8.29.14,9-1.69,4.36-.84,5.35a2,2,0,0,0,1.69.83s1.35,3.37,2.61,4.35.84,6.33,2.68,6.33c1.67,0,1.09-1,1-1.11.53.45,9,7.59,13.75,8.26,4.93.71,4.64-.7,4.78,0s3.79,2.25,5.9,2.11a6.53,6.53,0,0,0,3.8-2s5.19,2.1,5.62,1.41a2.15,2.15,0,0,0,0-1.68s1.4-.14,1.82-.7c0,0,2.93,2,5.37.63s2-3.35,1.83-3.7a2.48,2.48,0,0,0,.16-4.16c3.8.3,4.36-1.06,4.34-1.73s-.73-1.71-.45-2.42c.43,1.34.74,2.71,1.51,2.18s1.17-2.36.18-6.64c1.65-2.56,2.16-9.92,2.3-13.48a42.42,42.42,0,0,1,5,9.94l-1.14-.95v2.4c0,24.23,11.06,46.47,21.39,52,9.8,5.29,21.86,9.1,43.63,9.1,1.88,0,3.86,0,5.91-.07H160l5.48-4.64,6.76.63.2-.06c17.19-5.07,30.32-33,30.13-53.65V194.3l-2.81,2.14a32.72,32.72,0,0,1,3.53-11.85c.2,3.05.74,8.31,2.26,10.68-1,4.28-.6,6.12.17,6.64s1.09-.84,1.51-2.18c.28.7-.39,1.62-.44,2.42s.54,2,4.34,1.73a2.48,2.48,0,0,0,.16,4.16c-.22.35-.61,2.32,1.82,3.7s5.36-.64,5.36-.64c.43.57,1.83.71,1.83.71a2.07,2.07,0,0,0,0,1.68c.42.7,5.62-1.41,5.62-1.41a6.58,6.58,0,0,0,3.79,2c2.11.15,5.77-1.41,5.91-2.1s-.14.69,4.78,0,13.22-7.83,13.75-8.28c-.09.15-.67,1.11,1,1.11s1.41-5.34,2.67-6.32.84-3.37.84-3.37a2,2,0,0,0,1.68-.84c.84-1-.56-4.65-.84-5.34s2-10,2-10,0,.56,1.4,0S261.59,172.47,261.59,172.47Zm-61.34,26.37C199.53,222.07,184.86,244,172,248l-6.76-.63-4.06-.53-2.26-3-2-2.08-1.9-2.49-2.21-4.38,1.35,5.77,1.35,2.32h0l2,2.71,2.45,3.27,2.48.33L159.11,252c-27.29.65-39.47-4.16-48-8.78-11.39-6.14-19.48-29.39-20.15-47.63l4.94,4.11,9.07,2.56,9.07-1.17,4.6,5.58v7.89l7.07-6.2,5.61-2.42,5.57,1,11.29-5.64,8.62.84,5.66-2.88,8.79,4.9,12.29-3.51,2.56,2.42.75,3.87-2.44,2.77-3.18,1.94,3.35-.8,1.65-1.17.92,2.89,1.63,3.89-1.51-7.76,1.43-1.83-.35-3.39,8.72-2.19Zm16.18-41.38c-1,2.72-3.47,6.54-6.32,11-1.83,2.83-3.79,5.88-5.61,9-4,6.92-7.35,14.24-7,20.69L196,199.26l-8.51,2.13-3.4-3.2-12.62,3.61-9-5-6.15,3.11-8.61-.84-11.2,5.6-5.48-1-6.41,2.77-3.76,3.23v-3.74l-5.91-7.16L105.09,200l-8.17-2.3L92.5,194c-.5-5-4.4-11.43-8.74-17.72-1.27-1.86-2.58-3.7-3.87-5.49-3.7-5.17-7.19-10-8.41-13.34A21.16,21.16,0,0,1,70.38,146a19.41,19.41,0,0,0,.23-5l2.27-2,5-4.29,9.1,2.64,9.18-10.17,9.94,1.09,8.64-7.19,2.18.27a4.3,4.3,0,0,0,1.59,4.63,8.76,8.76,0,0,0,4.94,1.69,16.64,16.64,0,0,1,5.72,1.54,21,21,0,0,1,2.17,1.54c2.9,2.21,8.5,5.46,12.44,5.46,3.72,0,7.08-3.12,10.08-5.27a21.17,21.17,0,0,1,2.54-1.66,41.24,41.24,0,0,1,4.83-1.07c2.34-.4,4.19-.73,6-2.23a4.28,4.28,0,0,0,1.58-2.44l4.39,2.22,7.87-.64,3.12,6,8.27-3.2,4.06-11.23,3.15-1.83-1.57,4.35,1.19,4.63-2.44,6.83,10,.47,5.4,5.76,3.36,1.41,2,.86a29.53,29.53,0,0,0,.12,5.17C218.05,148,218.39,152.19,216.43,157.47Zm9.41-55.27c-1.59,14.18-4.3,31-5.09,35.9l-4.54-1.91-2.67-1.13L207.83,129l-7.83-.37,1.65-4.62-1.19-4.63,3.41-9.51.54-1.75,2.8-2.1,5.78-4.36-5.8,2.75-4.65,2.21-1.61,5-6.24,3.63-4,11-5.43,2.1-2.88-5.58-8.74.71-9.41-4.75-5.33-9.86L150,107.62l-5.69-3.74-9.17,7.33-.45.36-.5-.12-7-1.78-9.05,9.57-4.11-.5-8.65,7.19L97.27,125c.2-1,.55-3,1.2-6.67l.1-.54L95.23,114l.81-4.9,6.48-4.49c.87.06,1.78.08,2.72.08,6.6,0,14.48-1.33,19.58-5,6-4.35,6.47-12.76,6.39-16a7.91,7.91,0,0,0,2.36.44,4.13,4.13,0,0,0,1-.12c3.92-1,3.75-7.22,3.23-10.09,0,0-1,7.2-3.77,7.91-1.49.36-4.54-1.25-8.42-3.3a90.15,90.15,0,0,0-18.71-8c-19.43-5.35-34.18,2.25-34.85,2.61a99.5,99.5,0,0,1,11.53-1.76,20.58,20.58,0,0,0-7,17.66c.53,5,7.33,9.49,13.37,12.26l3.9,7.35-1,6,3.33,3.78c-.42,2.34-1,5.4-1.19,6.63l-8.72,9.66-8.93-2.58-5.13,4.43-4.48,3.86C66.93,136.42,65,126,63.3,112.32c-.17-1.41-.36-2.88-.56-4.36-.28-2.13-.57-4.35-.84-6.62A164,164,0,0,1,60.5,79.73c.42-34.27,27.09-53,36.4-56.87,8.84-3.66,25.33-8.76,28.27-9.66l5,2.71-3.88,7.89-3.33,4.26,4-2.72,2-2.75,3.18,2.12,2.67,3.43-1.64-3.74-3.35-3.33,2.38-4,3.2-5.5c20-1.59,43.11,3.92,62,14.8,8.32,4.78,16.81,15.2,22.16,27.17s7.42,25,7.49,32.29A151,151,0,0,1,225.84,102.19ZM91.6,99.65c-5.95-2.63-12.39-7-12.79-10.81-.74-7,2.55-13.54,8.81-17.72,6-.31,12.75-.08,18.66,1.62a93.28,93.28,0,0,1,18.28,7.81c1.64.85,3.08,1.62,4.36,2.21.07,1.34.5,10.85-5.43,15.15-5.41,3.9-14.81,5-21.62,4.46l-6.48,4.49Z"/><path class="cls-1" d="M154.16,119.28c1.93-.71-2.42-8.74-3.53-8.23S150.13,120.76,154.16,119.28Z"/><path class="cls-1" d="M135.51,113.85c-.18,2.75-1.35,6.4-4,5.43-1.18-.43,0-3.59,1.32-5.87l2.46.62Z"/><path class="cls-3" d="M156.31,199.89a9,9,0,0,1-.79,2.18s0,.06-.05.08c-.29.65-.67,1.38-1.1,2.18-1.17,2.15-2.72,4.7-4.24,7.1-1.92,3-3.33,10.6-3.06,17.67.15,3.58,1.54,8.38,1.81,10.89s-.35,5.48-4.71,5.48c-3.44,0-5.26-3.58-5.26-6.27,0-3,3.66-6.8,2.85-11.34-.21-1.2-1.38-6.84-1.38-8.37s-2.42-5.33-4-6.39-4.41,0-6.55.46-5.48-.16-6.84.6-4.11,4.57-3.66,6.85.47,8.68.47,10.61-1.67,5.06-1.83,8.49c-.12,2.92,2.07,5.24,3.15,7.55a5.81,5.81,0,0,1,.45,1.19,3.9,3.9,0,0,1,.09,1.36c-.22,2.36-2.19,5-2.32,8.53C119.24,263,125.93,279,116.8,279s-2.13-17-1.51-19.32c.42-1.59-1.5-7.59-3.23-13.39-.31-1-.6-2-.89-3-.41-1.43-.76-2.8-1.06-4-1.59-6.85.29-12.18.9-13.24s-.15-6.24-.15-7.62,1.51-6.7.76-9.43c-.63-2.24-3.39-4-5.36-6.88a12.16,12.16,0,0,1-1.19-2.13l2.66-.33,2.81-.37,4.38-.56,1,1.25,2.94,3.58a7.92,7.92,0,0,0,.8.12c.44,0,.89.08,1.33.1a29,29,0,0,0,8-.75l1-.24c1.32-.33,2.61-.66,3.89-1l1.67-.47c.63-.17,1.26-.32,1.86-.47a28,28,0,0,1,5.68-.9l.82,0c.47,0,.94,0,1.4,0l.44,0,.17-.07,1.73-.87Z"/></svg>