<svg id="Layer_1" data-name="Layer 1" xmlns="http://www.w3.org/2000/svg" viewBox="0 0 100 100"><defs><style>.cls-1{fill:#404040;}</style></defs><title>instagram</title><path class="cls-1" d="M50,41.4A8.6,8.6,0,1,0,58.6,50,8.53,8.53,0,0,0,50,41.4Z"/><path class="cls-1" d="M61.33,29Q50,28.78,38.61,29c-5.31.08-8.77,3-9.43,8.32-.52,4.15-.34,20.19-.24,24,.15,5.85,3.91,9.68,9.77,9.77q11.29.18,22.59,0c5.81-.09,9.62-3.87,9.73-9.67q.2-11.36,0-22.72C70.94,32.85,67.12,29,61.33,29ZM50,63.37A13.38,13.38,0,1,1,63.37,50,13.38,13.38,0,0,1,50,63.37ZM63.86,39.3A3.27,3.27,0,0,1,60.69,36a3.19,3.19,0,0,1,3.24-3A3.14,3.14,0,0,1,67,36.16,3.19,3.19,0,0,1,63.86,39.3Z"/><path class="cls-1" d="M50,3A47,47,0,1,0,97,50,47,47,0,0,0,50,3ZM76,60.66c-.09.59-.23,1.17-.26,1.76A13.71,13.71,0,0,1,65.1,75.23c-1.46.35-3,.52-4.44.77H39.34c-.59-.09-1.18-.23-1.78-.26A13.66,13.66,0,0,1,25,66a49.76,49.76,0,0,1-1-5V39.08c.09-.55.21-1.09.25-1.64A13.77,13.77,0,0,1,34.38,24.86c1.53-.42,3.13-.58,4.7-.86H60.92c.51.08,1,.21,1.52.25A13.71,13.71,0,0,1,75.27,35c.34,1.41.49,2.87.73,4.31Z"/></svg>
