<svg id="Layer_1" data-name="Layer 1" xmlns="http://www.w3.org/2000/svg" viewBox="0 0 100 100"><defs><style>.cls-1{fill:#036;}.cls-2{fill:#fff;}</style></defs><title>instagram-blue</title><circle class="cls-1" cx="50" cy="50" r="50"/><path class="cls-2" d="M77.66,61.34c-.09.63-.24,1.25-.28,1.88A14.59,14.59,0,0,1,66.07,76.84c-1.55.38-3.15.55-4.73.82H38.66c-.63-.09-1.26-.24-1.89-.28A14.53,14.53,0,0,1,23.41,67a52.94,52.94,0,0,1-1.07-5.36V38.38c.09-.58.23-1.16.27-1.74A14.65,14.65,0,0,1,33.39,23.25c1.62-.45,3.33-.61,5-.91H61.62c.54.09,1.07.23,1.62.26A14.58,14.58,0,0,1,76.88,34.08c.37,1.5.52,3.05.78,4.58Z"/><path class="cls-1" d="M50,40.85A9.15,9.15,0,1,0,59.15,50,9.08,9.08,0,0,0,50,40.85Z"/><path class="cls-1" d="M62.06,27.61q-12.08-.19-24.17,0c-5.64.09-9.33,3.24-10,8.86-.55,4.41-.36,21.47-.25,25.52.16,6.23,4.16,10.29,10.4,10.39q12,.19,24,0c6.18-.1,10.24-4.12,10.35-10.29q.21-12.08,0-24.17C72.27,31.75,68.22,27.71,62.06,27.61ZM50,64.22A14.24,14.24,0,1,1,64.22,50,14.23,14.23,0,0,1,50,64.22ZM64.74,38.61a3.48,3.48,0,0,1-3.37-3.48,3.39,3.39,0,0,1,3.45-3.24,3.34,3.34,0,0,1,3.28,3.39A3.4,3.4,0,0,1,64.74,38.61Z"/></svg>