<?xml version="1.0" encoding="utf-8"?>
<!-- Generator: Adobe Illustrator 21.0.0, SVG Export Plug-In . SVG Version: 6.00 Build 0)  -->
<svg version="1.1" id="Layer_1" xmlns="http://www.w3.org/2000/svg" xmlns:xlink="http://www.w3.org/1999/xlink" x="0px" y="0px"
	 viewBox="0 0 274 274" style="enable-background:new 0 0 274 274;" xml:space="preserve">
<style type="text/css">
	.st0{fill:#fff;}
</style>
<title>portfolio</title>
<path class="st0" d="M136.6,228.9h106.2c6.8,0,10-2.6,11.1-9.4c6.7-39.5,13.3-79,19.9-118.5c1-6-1.8-9.2-7.8-9.2
	c-26.6,0-53.2,0-79.8,0c-34.4,0-68.8,0-103.1,0c-6.6,0-11.1,2.5-13.9,8.5c-1.5,3.3-3.4,6.4-5,9.6c-2.9,5.8-7.6,8.4-14.2,8.4
	c-13.9-0.1-27.8,0-41.6,0c-6.9,0-9.4,3.1-8,9.9c6.3,30.3,12.6,60.6,18.9,90.9c1.5,7.1,4.7,9.8,11.8,9.8h105.5L136.6,228.9z"/>
<path class="st0" d="M134.8,45.2L134.8,45.2c-33.1,0-66.2,0-99.3,0c-8.5,0-13.3,4.4-13.4,12.7c-0.2,13.8,0,27.5-0.1,41.3
	c0,2.3,0.7,3.3,3.1,3.3c8.2-0.1,16.4,0,24.5,0c2.7,0.1,5.2-1.4,6.3-3.8c2-3.8,4-7.6,6.1-11.3c3.5-6.6,10.4-10.6,17.9-10.4h79.8
	c27.8,0,55.5,0,83.3,0c2.8,0,4-0.5,3.8-3.6c-0.2-5.3,0-10.6-0.1-16c0.1-3.7-1.5-7.2-4.4-9.6c-2.5-2-5.6-2.9-8.7-2.7
	C200.7,45.1,167.7,45.2,134.8,45.2z"/>
</svg>
