<svg id="Layer_1" data-name="Layer 1" xmlns="http://www.w3.org/2000/svg" viewBox="0 0 274 183.7"><defs><style>.cls-1{fill:#036;}</style></defs><title>porfolio-blue</title><path class="cls-1" d="M136.6,183.7H242.8c6.8,0,10-2.6,11.1-9.4Q264,115,273.8,55.8c1-6-1.8-9.2-7.8-9.2H83.1c-6.6,0-11.1,2.5-13.9,8.5-1.5,3.3-3.4,6.4-5,9.6-2.9,5.8-7.6,8.4-14.2,8.4-13.9-.1-27.8,0-41.6,0C1.5,73.1-1,76.2.4,83l18.9,90.9c1.5,7.1,4.7,9.8,11.8,9.8H136.6Z"/><path class="cls-1" d="M134.8,0H35.5C27,0,22.2,4.4,22.1,12.7c-.2,13.8,0,27.5-.1,41.3,0,2.3.7,3.3,3.1,3.3,8.2-.1,16.4,0,24.5,0a6.64,6.64,0,0,0,6.3-3.8c2-3.8,4-7.6,6.1-11.3A19.59,19.59,0,0,1,79.9,31.8H243c2.8,0,4-.5,3.8-3.6-.2-5.3,0-10.6-.1-16a12,12,0,0,0-4.4-9.6,12.56,12.56,0,0,0-8.7-2.7C200.7-.1,167.7,0,134.8,0Z"/></svg>