<svg id="Layer_1" data-name="Layer 1" xmlns="http://www.w3.org/2000/svg" viewBox="0 0 100 100"><defs><style>.cls-1{fill:#fff;}</style></defs><title>snapchat</title><path class="cls-1" d="M50,3A47,47,0,1,1,3,49.93,46.91,46.91,0,0,1,50,3ZM34.17,40.25h.12c.08,1.47.15,2.94.26,4.4,0,.45-.15.69-.56.63a13.79,13.79,0,0,1-2.59-.55,3.32,3.32,0,0,0-2.94.21,2.05,2.05,0,0,0-.29,3.65,12.52,12.52,0,0,0,2.41,1.27c.77.35,1.61.56,2.37.93a1.77,1.77,0,0,1,1,2.68,22.23,22.23,0,0,1-1.73,3.12,14.82,14.82,0,0,1-9.53,6.67,1.37,1.37,0,0,0-.88,2.22A3.56,3.56,0,0,0,23.86,67c1.58.48,3.19.89,4.81,1.27a.73.73,0,0,1,.66.63c.13.62.29,1.24.46,1.86A1.47,1.47,0,0,0,31.56,72c.68-.06,1.34-.21,2-.33a9.17,9.17,0,0,1,7.62,1.65c.63.5,1.31,1,2,1.39a11.71,11.71,0,0,0,12.69.57A24.09,24.09,0,0,0,59,73.23a8.93,8.93,0,0,1,6.77-1.66c.87.11,1.72.29,2.59.39a1.54,1.54,0,0,0,1.93-1.32c.16-.57.3-1.15.42-1.74.08-.42.3-.55.72-.66a52.1,52.1,0,0,0,5-1.39,4.28,4.28,0,0,0,1.81-1.43,1.34,1.34,0,0,0-.91-2.18,16.94,16.94,0,0,1-2.09-.57c-4.37-1.66-7.17-4.91-9.1-9-.67-1.42-.34-2.29,1.09-3,.73-.34,1.52-.55,2.28-.83a6.2,6.2,0,0,0,2.71-1.62,2,2,0,0,0-.33-3.07,3.34,3.34,0,0,0-3.49-.47,10.64,10.64,0,0,1-2.33.59c-.48.08-.68-.16-.65-.72.13-2.36.27-4.72.27-7.08a13.16,13.16,0,0,0-6.4-11.69c-5.74-3.65-11.8-3.67-17.74-.56a13,13,0,0,0-6.91,9.27A47.67,47.67,0,0,0,34.17,40.25Z"/></svg>