<svg id="Layer_1" data-name="Layer 1" xmlns="http://www.w3.org/2000/svg" viewBox="0 0 100 100"><defs><style>.cls-1{fill:#036;}.cls-2{fill:#fff;}</style></defs><title>twitter-blue</title><path class="cls-1" d="M79.34,32.79h0Z"/><path class="cls-1" d="M99.93,47.51a50,50,0,1,0-51,52.47c.35,0,.7,0,1.05,0a50,50,0,0,0,50-50C100,49.16,100,48.33,99.93,47.51Z"/><path class="cls-2" d="M83.37,33.81h0a41.05,41.05,0,0,1-4.89,6c-.16.15-.32.28-.47.39a3.06,3.06,0,0,1-.83.47S77.89,58.2,66.8,68.29c-7.73,7-16.14,10.89-26.54,10.18-.42,0-.82-.06-1.23-.11l-1-.12c-.4,0-.81-.11-1.21-.17l-1.22-.21-1-.19c-.79-.17-1.6-.36-2.42-.59l-.83-.22c-.79-.22-1.6-.47-2.41-.75-.37-.13-.77-.26-1.15-.4s-1.08-.38-1.62-.6c-.37-.14-.76-.29-1.14-.46-.94-.37-1.88-.79-2.84-1.22l-1.1-.51a28.54,28.54,0,0,0,15.25-3.11c.49-.27,1-.56,1.48-.88.24-.16.49-.32.73-.5s.48-.34.71-.52H39l-.38,0-.5-.07h0c-.37-.07-.81-.15-1.3-.27a17.89,17.89,0,0,1-2.18-.68L34,66.55l-.54-.26L32.81,66a11.07,11.07,0,0,1-5.58-6.68,25.12,25.12,0,0,0,7.57.95A7.06,7.06,0,0,0,36.2,60h0l.4-.15a2,2,0,0,0,.27-.12l.2-.11.26-.16-.72-.26-.31-.12c-.53-.2-1.26-.5-2.08-.89L33.71,58l-.53-.27c-.53-.28-1.1-.59-1.67-.93a0,0,0,0,0,0,0C27.64,54.46,23.24,50.61,23,45c0,0,4.29,1.84,5.85,1.84,0,0-10.26-6.42-4-16.57,0,0,5.47,9.83,27.35,10.38,0,0-.87-9.85,5.82-12.83,5.85-2.61,10.83-3.07,16.5,3.9l6.74-3.56c-.1.3-1.81,5-4.16,7.2a5.37,5.37,0,0,1-.54.46,1.78,1.78,0,0,1-.3.19,2.88,2.88,0,0,1-.53.29l7.61-2.46Z"/></svg>