<svg id="Layer_1" data-name="Layer 1" xmlns="http://www.w3.org/2000/svg" viewBox="0 0 100 100"><defs><style>.cls-1{fill:#404040;}</style></defs><title>twitter</title><path class="cls-1" d="M79.34,32.79h0Z"/><path class="cls-1" d="M96.9,47.66A47,47,0,1,0,49,97c.33,0,.66,0,1,0A47,47,0,0,0,97,50C97,49.21,96.94,48.43,96.9,47.66ZM81.35,34.79h0a38.56,38.56,0,0,1-4.59,5.62c-.15.14-.3.26-.44.37a2.88,2.88,0,0,1-.78.44s.67,16.47-9.75,26c-7.26,6.61-15.16,10.23-24.93,9.56-.39,0-.77-.06-1.16-.1l-1-.11c-.38,0-.76-.1-1.14-.16l-1.15-.2L35.53,76c-.74-.16-1.5-.34-2.27-.55l-.78-.21c-.74-.21-1.5-.44-2.26-.7-.35-.12-.72-.24-1.08-.38s-1-.36-1.52-.56c-.35-.13-.71-.27-1.07-.43-.88-.35-1.77-.74-2.67-1.15l-1-.48a26.81,26.81,0,0,0,14.33-2.92c.46-.25.93-.53,1.39-.83.23-.15.46-.3.69-.47s.45-.32.67-.49h-.29l-.36,0-.47-.07h0c-.35-.07-.76-.14-1.22-.25a16.81,16.81,0,0,1-2-.64l-.6-.24-.51-.24L33.85,65a10.4,10.4,0,0,1-5.24-6.28,23.6,23.6,0,0,0,7.11.89A6.63,6.63,0,0,0,37,59.4h0l.38-.14.25-.11.19-.1.24-.15-.68-.24-.29-.11c-.5-.19-1.18-.47-2-.84l-.48-.23-.5-.25c-.5-.26-1-.55-1.57-.87a0,0,0,0,0,0,0c-3.63-2.16-7.76-5.78-8-11.08,0,0,4,1.73,5.5,1.73,0,0-9.64-6-3.72-15.57,0,0,5.14,9.23,25.69,9.75,0,0-.82-9.25,5.47-12,5.5-2.45,10.17-2.88,15.5,3.66l6.33-3.34c-.09.28-1.7,4.69-3.91,6.76a5,5,0,0,1-.51.43,1.67,1.67,0,0,1-.28.18,2.7,2.7,0,0,1-.5.27l7.15-2.31Z"/></svg>
