<svg id="Layer_1" data-name="Layer 1" xmlns="http://www.w3.org/2000/svg" viewBox="0 0 288 288"><defs><style>.cls-1{fill:#231f20;}.cls-2{fill:#58595b;}.cls-3{fill:none;}</style></defs><title>type</title><path class="cls-1" d="M139,58.6a58.61,58.61,0,0,0-12.7-19.45,57.48,57.48,0,0,0-19.2-12.78A62.27,62.27,0,0,0,83.12,21.8,62.69,62.69,0,0,0,59,26.37a57.6,57.6,0,0,0-19.2,12.78A58.8,58.8,0,0,0,27.11,58.6a65,65,0,0,0-4.56,24.63,64.85,64.85,0,0,0,4.56,24.61,58.8,58.8,0,0,0,12.7,19.45A57.41,57.41,0,0,0,59,140.07a61.57,61.57,0,0,0,20.65,4.48h0c23.79.09,35.78-11.42,35.78-11.42q14.72-7.78,21.4-20.73a62.67,62.67,0,0,0,6.68-29.18A65,65,0,0,0,139,58.6Zm-11.84,43.65a48.57,48.57,0,0,1-9.31,16,45,45,0,0,1-14.89,11.08,45.9,45.9,0,0,1-19.79,4.15,46.29,46.29,0,0,1-20-4.15,45,45,0,0,1-14.89-11.08,48.57,48.57,0,0,1-9.31-16,58,58,0,0,1,0-38.06,48.69,48.69,0,0,1,9.31-16A45.19,45.19,0,0,1,63.15,37.12a46.28,46.28,0,0,1,20-4.14,45.9,45.9,0,0,1,19.79,4.14A45.18,45.18,0,0,1,117.8,48.19a48.69,48.69,0,0,1,9.31,16,58,58,0,0,1,0,38.06Z"/><path class="cls-2" d="M151.64,133.48v11.16H83.12c-1.17,0-2.31,0-3.46-.09,23.79.09,35.78-11.42,35.78-11.42v.34Z"/><path class="cls-1" d="M281.74,146a48.49,48.49,0,0,0-17.88-17.89,46.67,46.67,0,0,0-24.21-6.33,52.48,52.48,0,0,0-25.93,6.56,46.72,46.72,0,0,0-18.26,17.94A51,51,0,0,0,189,172q0,20.09,12.22,34t31.17,15.79a85.85,85.85,0,0,0,12.93,0q19-2.37,30.87-16T288,171.57Q288,157,281.74,146Zm-13.63,48.81q-4.88,10.54-12.33,15.45a30.56,30.56,0,0,1-17.14,4.89,31.89,31.89,0,0,1-17.57-5,34.88,34.88,0,0,1-12.43-14.42q-4.64-9.42-4.64-23,0-14.19,4.7-23.86a34.89,34.89,0,0,1,12.51-14.63q7.8-5,18.67-5,10.24,0,17.14,4.44t11.08,13.77A57.68,57.68,0,0,1,273,171.42,55,55,0,0,1,268.11,194.82Z"/><path class="cls-2" d="M281.4,237.56q-13.77,8.34-24.48,8.34a33.27,33.27,0,0,1-14-3.06,18.24,18.24,0,0,1-7.89-7,19.31,19.31,0,0,1-2.88-10.43c0-.74.06-1.95.21-3.62a85.85,85.85,0,0,0,12.93,0c-.1,1-.13,1.87-.13,2.57a11.93,11.93,0,0,0,4.24,9.36q4.24,3.71,11.05,3.71a27.45,27.45,0,0,0,8-1.22,44.22,44.22,0,0,0,9.18-4.2Z"/><path class="cls-3" d="M10,0A87.45,87.45,0,0,0,0,15.29V0Z"/><path class="cls-2" d="M225.64,229.58v12.23q-20.65,23.52-32.12,32.6t-23.32,9.08q-8.24,0-19-5.54t-37-27.34q-11.47-9.37-33.07-25.33T54,206.83a25.86,25.86,0,0,0-10.8-2.48q-14.92,0-39.77,25.23V217.73a115.78,115.78,0,0,1,19.11-21.22C69,209.36,101,205.87,101,205.87q14.33,3.45,42.06,26.59Q171.54,256,184.91,256q8.62,0,17-5.73T225.64,229.58Z"/><path class="cls-1" d="M213.59,69.75q0,52.19-34,89.67T101,205.87s-32,3.49-78.39-9.36A103.53,103.53,0,0,1,0,183.69V118q2,4.67,4.32,9.11a133.67,133.67,0,0,0,40.26,46.27,93.86,93.86,0,0,0,56.2,18.34q34,0,57.75-25.33t23.71-64A143.22,143.22,0,0,0,165.7,34.95,128.08,128.08,0,0,0,139.51,0H191.2c2,2.59,3.85,5.3,5.66,8.1Q213.59,34,213.59,69.75Z"/><path class="cls-1" d="M115.44,133.14s-12,11.5-35.78,11.42Z"/></svg>